<svg width="0" height="0" class="hidden">
    <symbol xmlns="http://www.w3.org/2000/svg" viewBox="0 0 4 3" id="down">
        <path d="M0.400581 0L3.59942 0C3.92917 0 4.11718 0.38537 3.91898 0.654991L2.31503 2.83681C2.1548 3.05477 1.83492 3.05432 1.67526 2.83592L0.0803721 0.654098C-0.116822 0.38434 0.07133 0 0.400581 0Z"/>
    </symbol>
    <svg viewBox="0 0 3 5" xmlns="http://www.w3.org/2000/svg" id="right">
      <path d="M3 2.5L0 5L0 0L3 2.5Z"/>
    </svg>
    <svg viewBox="0 0 8 14" xmlns="http://www.w3.org/2000/svg" id="left-big">
        <path fill-rule="evenodd" clip-rule="evenodd" d="M7.70711 0.292893C8.09763 0.683418 8.09763 1.31658 7.70711 1.70711L2.41421 7L7.70711 12.2929C8.09763 12.6834 8.09763 13.3166 7.70711 13.7071C7.31658 14.0976 6.68342 14.0976 6.29289 13.7071L0.292893 7.70711C-0.0976311 7.31658 -0.0976311 6.68342 0.292893 6.29289L6.29289 0.292893C6.68342 -0.0976311 7.31658 -0.0976311 7.70711 0.292893Z"/>
    </svg>
    <svg viewBox="0 0 8 14" xmlns="http://www.w3.org/2000/svg" id="right-big">
        <path fill-rule="evenodd" clip-rule="evenodd" d="M0.292892 0.292893C-0.0976315 0.683418 -0.0976315 1.31658 0.292892 1.70711L5.58579 7L0.292893 12.2929C-0.0976315 12.6834 -0.0976315 13.3166 0.292893 13.7071C0.683417 14.0976 1.31658 14.0976 1.70711 13.7071L7.70711 7.70711C8.09763 7.31658 8.09763 6.68342 7.70711 6.29289L1.70711 0.292893C1.31658 -0.0976311 0.683417 -0.0976311 0.292892 0.292893Z"/>
    </svg>
    <symbol width="14" height="24" viewBox="0 0 14 24" xmlns="http://www.w3.org/2000/svg" id="right-lg">
        <path fill-rule="evenodd" clip-rule="evenodd" d="M1.1169 22.8839C1.60506 23.372 2.39652 23.372 2.88467 22.8839L12.8847 12.8839L13.7686 12L12.8847 11.1161L2.88467 1.11612C2.39652 0.627961 1.60506 0.627961 1.1169 1.11612C0.628749 1.60427 0.628749 2.39573 1.1169 2.88388L10.233 12L1.1169 21.1161C0.628749 21.6043 0.628749 22.3957 1.1169 22.8839Z"/>
    </symbol>
    <svg viewBox="0 0 12 12" xmlns="http://www.w3.org/2000/svg" id="close">
        <path fill-rule="evenodd" clip-rule="evenodd" d="M0.292893 0.292893C0.683417 -0.0976311 1.31658 -0.0976311 1.70711 0.292893L6 4.58579L10.2929 0.292893C10.6834 -0.0976311 11.3166 -0.0976311 11.7071 0.292893C12.0976 0.683417 12.0976 1.31658 11.7071 1.70711L7.41421 6L11.7071 10.2929C12.0976 10.6834 12.0976 11.3166 11.7071 11.7071C11.3166 12.0976 10.6834 12.0976 10.2929 11.7071L6 7.41421L1.70711 11.7071C1.31658 12.0976 0.683417 12.0976 0.292893 11.7071C-0.0976311 11.3166 -0.0976311 10.6834 0.292893 10.2929L4.58579 6L0.292893 1.70711C-0.0976311 1.31658 -0.0976311 0.683417 0.292893 0.292893Z"/>
    </svg>
    <symbol viewBox="0 0 8 8" xmlns="http://www.w3.org/2000/svg" id="close_xs">
        <path fill-rule="evenodd" clip-rule="evenodd" d="M0.292893 0.292893C0.683417 -0.0976311 1.31658 -0.0976311 1.70711 0.292893L4 2.58579L6.29289 0.292893C6.68342 -0.0976311 7.31658 -0.0976311 7.70711 0.292893C8.09763 0.683417 8.09763 1.31658 7.70711 1.70711L5.41421 4L7.70711 6.29289C8.09763 6.68342 8.09763 7.31658 7.70711 7.70711C7.31658 8.09763 6.68342 8.09763 6.29289 7.70711L4 5.41421L1.70711 7.70711C1.31658 8.09763 0.683417 8.09763 0.292893 7.70711C-0.0976311 7.31658 -0.0976311 6.68342 0.292893 6.29289L2.58579 4L0.292893 1.70711C-0.0976311 1.31658 -0.0976311 0.683417 0.292893 0.292893Z"/>
    </symbol>
    <symbol width="10" height="6" viewBox="0 0 10 6" xmlns="http://www.w3.org/2000/svg" id="down-big">
        <path fill-rule="evenodd" clip-rule="evenodd" d="M0.328053 5.67253C0.699051 6.04353 1.30056 6.04353 1.67156 5.67253L4.9998 2.34428L8.32805 5.67253C8.69905 6.04353 9.30056 6.04353 9.67156 5.67253C10.0426 5.30153 10.0426 4.70003 9.67156 4.32903L5.67156 0.32903C5.30056 -0.0419682 4.69905 -0.0419682 4.32805 0.32903L0.328053 4.32903C-0.0429448 4.70003 -0.0429448 5.30153 0.328053 5.67253Z"/>
    </symbol>
    <symbol width="16" height="16" viewBox="0 0 16 16" xmlns="http://www.w3.org/2000/svg" id="back">
        <path fill-rule="evenodd" clip-rule="evenodd" d="M15 8C15 8.55228 14.5523 9 14 9L4.41421 9L7.70711 12.2929C8.09763 12.6834 8.09763 13.3166 7.70711 13.7071C7.31658 14.0976 6.68342 14.0976 6.29289 13.7071L1.29289 8.70711C0.902368 8.31658 0.902368 7.68342 1.29289 7.29289L6.29289 2.29289C6.68342 1.90237 7.31658 1.90237 7.70711 2.29289C8.09763 2.68342 8.09763 3.31658 7.70711 3.70711L4.41421 7L14 7C14.5523 7 15 7.44771 15 8Z"/>
    </symbol>
    <symbol width="14" height="8" viewBox="0 0 14 8" xmlns="http://www.w3.org/2000/svg" id="down-ebig">
        <path fill-rule="evenodd" clip-rule="evenodd" d="M0.292893 0.292893C0.683417 -0.0976311 1.31658 -0.0976311 1.70711 0.292893L7 5.58579L12.2929 0.292893C12.6834 -0.0976311 13.3166 -0.0976311 13.7071 0.292893C14.0976 0.683417 14.0976 1.31658 13.7071 1.70711L7.70711 7.70711C7.31658 8.09763 6.68342 8.09763 6.29289 7.70711L0.292893 1.70711C-0.0976311 1.31658 -0.0976311 0.683417 0.292893 0.292893Z"/>
    </symbol>
    <symbol width="14" height="12" viewBox="0 0 14 12" xmlns="http://www.w3.org/2000/svg" id="forward">
        <path fill-rule="evenodd" clip-rule="evenodd" d="M-2.62268e-07 6C-2.86409e-07 6.55229 0.447715 7 0.999999 7L10.5858 7L7.29289 10.2929C6.90237 10.6834 6.90237 11.3166 7.29289 11.7071C7.68342 12.0976 8.31658 12.0976 8.70711 11.7071L13.7071 6.70711C14.0976 6.31658 14.0976 5.68342 13.7071 5.29289L8.70711 0.292894C8.31658 -0.0976307 7.68342 -0.0976307 7.29289 0.292894C6.90237 0.683418 6.90237 1.31658 7.29289 1.70711L10.5858 5L1 5C0.447715 5 -2.97732e-07 5.44772 -2.62268e-07 6Z"/>
    </symbol>

</svg>