<svg width="42" height="43" viewBox="0 0 42 43" fill="none" xmlns="http://www.w3.org/2000/svg">
<path d="M20.5122 15L31.0122 9.75L20.5122 4.5V22M13.5122 21.9825L10.8728 23.4893M27.5122 22L30.1404 23.4957M10.8697 23.4875L10.8728 23.4893M30.1547 34.5125L20.5165 29.0025M30.1547 23.4875L30.1404 23.4957M10.8872 34.5125L20.5165 29.0025M10.8728 23.4893L3.88716 27.4775C3.61784 27.6301 3.39382 27.8515 3.23797 28.1189C3.08212 28.3864 3 28.6904 3 29C3 29.3096 3.08212 29.6136 3.23797 29.8811C3.39382 30.1485 3.61784 30.3699 3.88716 30.5225L18.7622 39.0275C19.2942 39.3347 19.8978 39.4964 20.5122 39.4964C21.1265 39.4964 21.7301 39.3347 22.2622 39.0275L37.1372 30.5225C37.4065 30.3699 37.6305 30.1485 37.7864 29.8811C37.9422 29.6136 38.0243 29.3096 38.0243 29C38.0243 28.6904 37.9422 28.3864 37.7864 28.1189C37.6305 27.8515 37.4065 27.6301 37.1372 27.4775L30.1404 23.4957M10.8728 23.4893L20.5165 29.0025M30.1404 23.4957L20.5165 29.0025" stroke="#DEE2F0" stroke-linecap="round" stroke-linejoin="round"/>
<path d="M14 21.4825L4.37495 26.9775C4.10563 27.1301 3.88162 27.3515 3.72576 27.6189C3.56991 27.8864 3.48779 28.1904 3.48779 28.5C3.48779 28.8095 3.56991 29.1136 3.72576 29.381C3.88162 29.6485 4.10563 29.8699 4.37495 30.0225L11.375 34.0125L21.0087 28.5L11.3575 22.9875" stroke="#5C1EA5" stroke-linecap="round" stroke-linejoin="round"/>
</svg>
