<svg width="1421" height="57" viewBox="0 0 1421 57" fill="none" xmlns="http://www.w3.org/2000/svg">
<path d="M1 0V32" stroke="#939292"/>
<path d="M16.7666 16V32" stroke="#939292"/>
<path d="M32.5332 16V32" stroke="#939292"/>
<path d="M48.2998 16V32" stroke="#939292"/>
<path d="M64.0669 16V32" stroke="#939292"/>
<path d="M79.8335 8V32" stroke="#939292"/>
<path d="M95.6001 16V32" stroke="#939292"/>
<path d="M111.367 16V32" stroke="#939292"/>
<path d="M127.133 16V32" stroke="#939292"/>
<path d="M142.9 16V32" stroke="#939292"/>
<path d="M158.667 0V32" stroke="#939292"/>
<path d="M158.667 0V32" stroke="#939292"/>
<path d="M174.433 16V32" stroke="#939292"/>
<path d="M190.2 16V32" stroke="#939292"/>
<path d="M205.966 16V32" stroke="#939292"/>
<path d="M221.733 16V32" stroke="#939292"/>
<path d="M237.5 8V32" stroke="#939292"/>
<path d="M253.267 16V32" stroke="#939292"/>
<path d="M269.033 16V32" stroke="#939292"/>
<path d="M284.8 16V32" stroke="#939292"/>
<path d="M300.566 16V32" stroke="#939292"/>
<path d="M316.333 0V32" stroke="#939292"/>
<path d="M316.333 0V32" stroke="#939292"/>
<path d="M332.1 16V32" stroke="#939292"/>
<path d="M347.867 16V32" stroke="#939292"/>
<path d="M363.633 16V32" stroke="#939292"/>
<path d="M379.4 16V32" stroke="#939292"/>
<path d="M395.167 8V32" stroke="#939292"/>
<path d="M410.934 16V32" stroke="#939292"/>
<path d="M426.7 16V32" stroke="#939292"/>
<path d="M442.467 16V32" stroke="#939292"/>
<path d="M458.233 16V32" stroke="#939292"/>
<path d="M474 0V32" stroke="#939292"/>
<path d="M474 0V32" stroke="#939292"/>
<path d="M489.767 16V32" stroke="#939292"/>
<path d="M505.533 16V32" stroke="#939292"/>
<path d="M521.3 16V32" stroke="#939292"/>
<path d="M537.067 16V32" stroke="#939292"/>
<path d="M552.833 8V32" stroke="#939292"/>
<path d="M568.6 16V32" stroke="#939292"/>
<path d="M584.367 16V32" stroke="#939292"/>
<path d="M600.133 16V32" stroke="#939292"/>
<path d="M615.9 16V32" stroke="#939292"/>
<path d="M631.667 0V32" stroke="#939292"/>
<path d="M631.667 0V32" stroke="#939292"/>
<path d="M647.433 16V32" stroke="#939292"/>
<path d="M663.2 16V32" stroke="#939292"/>
<path d="M678.966 16V32" stroke="#939292"/>
<path d="M694.733 16V32" stroke="#939292"/>
<path d="M710.5 8V32" stroke="#939292"/>
<path d="M726.267 16V32" stroke="#939292"/>
<path d="M742.033 16V32" stroke="#939292"/>
<path d="M757.8 16V32" stroke="#939292"/>
<path d="M773.566 16V32" stroke="#939292"/>
<path d="M789.333 0V32" stroke="#939292"/>
<path d="M789.333 0V32" stroke="#939292"/>
<path d="M805.1 16V32" stroke="#939292"/>
<path d="M820.867 16V32" stroke="#939292"/>
<path d="M836.633 16V32" stroke="#939292"/>
<path d="M852.4 16V32" stroke="#939292"/>
<path d="M868.167 8V32" stroke="#939292"/>
<path d="M883.934 16V32" stroke="#939292"/>
<path d="M899.7 16V32" stroke="#939292"/>
<path d="M915.467 16V32" stroke="#939292"/>
<path d="M931.233 16V32" stroke="#939292"/>
<path d="M947 0V32" stroke="#939292"/>
<path d="M947 0V32" stroke="#939292"/>
<path d="M962.767 16V32" stroke="#939292"/>
<path d="M978.533 16V32" stroke="#939292"/>
<path d="M994.3 16V32" stroke="#939292"/>
<path d="M1010.07 16V32" stroke="#939292"/>
<path d="M1025.83 8V32" stroke="#939292"/>
<path d="M1041.6 16V32" stroke="#939292"/>
<path d="M1057.37 16V32" stroke="#939292"/>
<path d="M1073.13 16V32" stroke="#939292"/>
<path d="M1088.9 16V32" stroke="#939292"/>
<path d="M1104.67 0V32" stroke="#939292"/>
<path d="M1104.67 0V32" stroke="#939292"/>
<path d="M1120.43 16V32" stroke="#939292"/>
<path d="M1136.2 16V32" stroke="#939292"/>
<path d="M1151.97 16V32" stroke="#939292"/>
<path d="M1167.73 16V32" stroke="#939292"/>
<path d="M1183.5 8V32" stroke="#939292"/>
<path d="M1199.27 16V32" stroke="#939292"/>
<path d="M1215.03 16V32" stroke="#939292"/>
<path d="M1230.8 16V32" stroke="#939292"/>
<path d="M1246.57 16V32" stroke="#939292"/>
<path d="M1262.33 0V32" stroke="#939292"/>
<path d="M1262.33 0V32" stroke="#939292"/>
<path d="M1278.1 16V32" stroke="#939292"/>
<path d="M1293.87 16V32" stroke="#939292"/>
<path d="M1309.63 16V32" stroke="#939292"/>
<path d="M1325.4 16V32" stroke="#939292"/>
<path d="M1341.17 8V32" stroke="#939292"/>
<path d="M1356.93 16V32" stroke="#939292"/>
<path d="M1372.7 16V32" stroke="#939292"/>
<path d="M1388.47 16V32" stroke="#939292"/>
<path d="M1404.23 16V32" stroke="#939292"/>
<path d="M1420 0V32" stroke="#939292"/>
<path d="M7.244 50.452L8.392 51.012C8.14933 51.6653 7.748 52.174 7.188 52.538C6.628 52.902 5.96067 53.084 5.186 53.084C4.07533 53.084 3.22133 52.7433 2.624 52.062C2.02667 51.3807 1.728 50.5173 1.728 49.472V46.784C1.728 45.7573 2.02667 44.9033 2.624 44.222C3.23067 43.5313 4.08467 43.186 5.186 43.186C5.942 43.186 6.59533 43.368 7.146 43.732C7.706 44.096 8.11667 44.6 8.378 45.244L7.23 45.762C7.062 45.3327 6.80067 44.9967 6.446 44.754C6.09133 44.502 5.676 44.376 5.2 44.376C4.48133 44.376 3.926 44.6187 3.534 45.104C3.142 45.5893 2.946 46.168 2.946 46.84V49.374C2.946 50.074 3.142 50.6713 3.534 51.166C3.926 51.6607 4.48133 51.908 5.2 51.908C5.676 51.908 6.09133 51.782 6.446 51.53C6.81 51.2687 7.076 50.9093 7.244 50.452ZM14.1316 46.07V47.064H11.9476V53H10.7856V47.064H8.61556V46.07H14.1316ZM16.9765 45.986C18.8432 45.986 19.7765 46.7327 19.7765 48.226V53H18.6145V52.398L18.6005 52.384C18.4605 52.5893 18.2178 52.7573 17.8725 52.888C17.5272 53.0187 17.1305 53.084 16.6825 53.084C15.9172 53.084 15.3152 52.8973 14.8765 52.524C14.4378 52.1413 14.2185 51.642 14.2185 51.026C14.2185 50.4287 14.4145 49.9387 14.8065 49.556C15.1985 49.1733 15.7398 48.982 16.4305 48.982H18.6145V48.198C18.6145 47.442 18.0825 47.064 17.0185 47.064C16.2532 47.064 15.7025 47.2647 15.3665 47.666L14.6385 46.896C15.1612 46.2893 15.9405 45.986 16.9765 45.986ZM15.3105 50.956C15.3105 51.292 15.4365 51.558 15.6885 51.754C15.9498 51.9407 16.3278 52.034 16.8225 52.034C18.0172 52.034 18.6145 51.6047 18.6145 50.746V49.934H16.7105C16.2625 49.934 15.9172 50.0227 15.6745 50.2C15.4318 50.3773 15.3105 50.6293 15.3105 50.956ZM21.2664 55.772V46.056H22.4144V46.826L22.4564 46.84C22.9418 46.2707 23.5718 45.986 24.3464 45.986C25.9984 45.986 26.8244 47.148 26.8244 49.472C26.8244 51.88 25.9238 53.084 24.1224 53.084C23.4131 53.084 22.8531 52.8507 22.4424 52.384H22.4144V55.772H21.2664ZM22.4144 49.542C22.4144 50.1207 22.4984 50.648 22.6664 51.124C22.8904 51.6653 23.3291 51.936 23.9824 51.936C24.6731 51.936 25.1258 51.6747 25.3404 51.152C25.5271 50.732 25.6204 50.1953 25.6204 49.542C25.6204 49.0193 25.5738 48.5853 25.4804 48.24C25.3031 47.4933 24.8271 47.12 24.0524 47.12C22.9604 47.12 22.4144 47.9273 22.4144 49.542ZM32.9988 46.07V47.064H30.8148V53H29.6528V47.064H27.4828V46.07H32.9988ZM38.0124 50.004V53H36.8504V46.056H38.0124V49.066H39.2164C39.5711 49.066 39.8511 48.996 40.0564 48.856C40.2711 48.7067 40.4344 48.4407 40.5464 48.058L41.1624 46.056H42.3104L41.6804 48.072C41.4751 48.8093 41.1344 49.2433 40.6584 49.374C40.9477 49.4487 41.1717 49.5933 41.3304 49.808C41.4891 50.0227 41.6291 50.3353 41.7504 50.746L42.4364 53H41.2604L40.7144 51.082C40.5744 50.6713 40.4017 50.3913 40.1964 50.242C40.0004 50.0833 39.7251 50.004 39.3704 50.004H38.0124ZM45.9609 45.986C47.8276 45.986 48.7609 46.7327 48.7609 48.226V53H47.5989V52.398L47.5849 52.384C47.4449 52.5893 47.2022 52.7573 46.8569 52.888C46.5116 53.0187 46.1149 53.084 45.6669 53.084C44.9016 53.084 44.2996 52.8973 43.8609 52.524C43.4222 52.1413 43.2029 51.642 43.2029 51.026C43.2029 50.4287 43.3989 49.9387 43.7909 49.556C44.1829 49.1733 44.7242 48.982 45.4149 48.982H47.5989V48.198C47.5989 47.442 47.0669 47.064 46.0029 47.064C45.2376 47.064 44.6869 47.2647 44.3509 47.666L43.6229 46.896C44.1456 46.2893 44.9249 45.986 45.9609 45.986ZM44.2949 50.956C44.2949 51.292 44.4209 51.558 44.6729 51.754C44.9342 51.9407 45.3122 52.034 45.8069 52.034C47.0016 52.034 47.5989 51.6047 47.5989 50.746V49.934H45.6949C45.2469 49.934 44.9016 50.0227 44.6589 50.2C44.4162 50.3773 44.2949 50.6293 44.2949 50.956ZM50.2508 55.772V46.056H51.3988V46.826L51.4408 46.84C51.9261 46.2707 52.5561 45.986 53.3308 45.986C54.9828 45.986 55.8088 47.148 55.8088 49.472C55.8088 51.88 54.9081 53.084 53.1068 53.084C52.3975 53.084 51.8375 52.8507 51.4268 52.384H51.3988V55.772H50.2508ZM51.3988 49.542C51.3988 50.1207 51.4828 50.648 51.6508 51.124C51.8748 51.6653 52.3135 51.936 52.9668 51.936C53.6575 51.936 54.1101 51.6747 54.3248 51.152C54.5115 50.732 54.6048 50.1953 54.6048 49.542C54.6048 49.0193 54.5581 48.5853 54.4648 48.24C54.2875 47.4933 53.8115 47.12 53.0368 47.12C51.9448 47.12 51.3988 47.9273 51.3988 49.542ZM61.6331 50.858C61.6331 50.5593 61.5211 50.312 61.2971 50.116C61.0825 49.92 60.7745 49.822 60.3731 49.822L58.4551 49.808V51.936H60.3731C60.7745 51.936 61.0825 51.8427 61.2971 51.656C61.5211 51.4693 61.6331 51.2033 61.6331 50.858ZM57.3071 46.056H58.4691V48.758H60.4151C61.1618 48.758 61.7498 48.954 62.1791 49.346C62.6085 49.7287 62.8231 50.2327 62.8231 50.858C62.8231 51.5113 62.6085 52.034 62.1791 52.426C61.7498 52.8087 61.1571 53 60.4011 53H57.2931L57.3071 46.056ZM69.0949 49.024V49.92H64.6289V50.032C64.6289 50.6293 64.7876 51.11 65.1049 51.474C65.4222 51.838 65.8609 52.02 66.4209 52.02C66.9716 52.02 67.4942 51.8007 67.9889 51.362L68.7309 52.188C68.1056 52.7853 67.3169 53.084 66.3649 53.084C65.5809 53.084 64.9136 52.86 64.3629 52.412C63.7376 51.8613 63.4249 50.9093 63.4249 49.556C63.4249 48.24 63.7422 47.2973 64.3769 46.728C64.9649 46.224 65.6136 45.972 66.3229 45.972C67.1162 45.972 67.7742 46.2473 68.2969 46.798C68.8289 47.3487 69.0949 48.0907 69.0949 49.024ZM64.6289 48.954H67.8909C67.8629 48.3473 67.7042 47.8807 67.4149 47.554C67.1349 47.2273 66.7522 47.064 66.2669 47.064C65.7909 47.064 65.4082 47.232 65.1189 47.568C64.8296 47.8947 64.6662 48.3567 64.6289 48.954ZM70.4031 55.772V46.056H71.5511V46.826L71.5931 46.84C72.0785 46.2707 72.7085 45.986 73.4831 45.986C75.1351 45.986 75.9611 47.148 75.9611 49.472C75.9611 51.88 75.0605 53.084 73.2591 53.084C72.5498 53.084 71.9898 52.8507 71.5791 52.384H71.5511V55.772H70.4031ZM71.5511 49.542C71.5511 50.1207 71.6351 50.648 71.8031 51.124C72.0271 51.6653 72.4658 51.936 73.1191 51.936C73.8098 51.936 74.2625 51.6747 74.4771 51.152C74.6638 50.732 74.7571 50.1953 74.7571 49.542C74.7571 49.0193 74.7105 48.5853 74.6171 48.24C74.4398 47.4933 73.9638 47.12 73.1891 47.12C72.0971 47.12 71.5511 47.9273 71.5511 49.542ZM84.8795 46.07V53H83.7175V46.07H84.8795ZM81.7155 50.858C81.7155 50.5593 81.6035 50.312 81.3795 50.116C81.1648 49.92 80.8568 49.822 80.4555 49.822L78.5375 49.808V51.936H80.4555C80.8568 51.936 81.1648 51.8427 81.3795 51.656C81.6035 51.4693 81.7155 51.2033 81.7155 50.858ZM77.3895 46.056H78.5515V48.758H80.4975C81.2441 48.758 81.8321 48.954 82.2615 49.346C82.6908 49.7287 82.9055 50.2327 82.9055 50.858C82.9055 51.5113 82.6908 52.034 82.2615 52.426C81.8321 52.8087 81.2395 53 80.4835 53H77.3895V46.056Z" fill="#939292"/>
<path d="M162.16 51.866V53H156.7V51.852L160.48 47.078C160.844 46.6207 161.026 46.1587 161.026 45.692C161.026 45.2813 160.895 44.9453 160.634 44.684C160.373 44.4227 160.009 44.292 159.542 44.292C159.131 44.292 158.781 44.432 158.492 44.712C158.203 44.992 158.025 45.356 157.96 45.804L156.784 45.636C156.896 44.88 157.209 44.2873 157.722 43.858C158.245 43.4193 158.861 43.2 159.57 43.2C160.373 43.2 161.021 43.4193 161.516 43.858C162.011 44.2967 162.258 44.8987 162.258 45.664C162.258 46.3453 162.02 46.98 161.544 47.568L158.142 51.866H162.16ZM173.831 46.056V53H172.669V48.534C172.529 48.842 172.38 49.1407 172.221 49.43L170.877 52.006H169.925L168.539 49.36L168.119 48.52V53H166.957V46.056H168.077L169.715 49.346C169.752 49.402 169.874 49.6493 170.079 50.088L170.429 50.83C170.494 50.7087 170.611 50.466 170.779 50.102L171.115 49.346L172.739 46.056H173.831ZM180.878 49.024V49.92H176.412V50.032C176.412 50.6293 176.571 51.11 176.888 51.474C177.205 51.838 177.644 52.02 178.204 52.02C178.755 52.02 179.277 51.8007 179.772 51.362L180.514 52.188C179.889 52.7853 179.1 53.084 178.148 53.084C177.364 53.084 176.697 52.86 176.146 52.412C175.521 51.8613 175.208 50.9093 175.208 49.556C175.208 48.24 175.525 47.2973 176.16 46.728C176.748 46.224 177.397 45.972 178.106 45.972C178.899 45.972 179.557 46.2473 180.08 46.798C180.612 47.3487 180.878 48.0907 180.878 49.024ZM176.412 48.954H179.674C179.646 48.3473 179.487 47.8807 179.198 47.554C178.918 47.2273 178.535 47.064 178.05 47.064C177.574 47.064 177.191 47.232 176.902 47.568C176.613 47.8947 176.449 48.3567 176.412 48.954ZM186.568 51.264L187.324 52.09C187.026 52.398 186.652 52.6407 186.204 52.818C185.766 52.9953 185.322 53.084 184.874 53.084C183.978 53.084 183.241 52.7993 182.662 52.23C182.084 51.6513 181.794 50.7647 181.794 49.57C181.794 48.3847 182.098 47.4887 182.704 46.882C183.302 46.2847 184.048 45.986 184.944 45.986C185.794 45.986 186.55 46.308 187.212 46.952L186.47 47.792C186.05 47.3253 185.56 47.092 185 47.092C184.328 47.092 183.815 47.302 183.46 47.722C183.115 48.1327 182.942 48.7393 182.942 49.542C182.942 51.1753 183.605 51.992 184.93 51.992C185.556 51.992 186.102 51.7493 186.568 51.264ZM188.076 48.212C188.076 47.596 188.276 47.0873 188.678 46.686C189.088 46.2753 189.606 46.07 190.232 46.07H193.536V53H192.388V50.13H190.876C190.054 50.1767 189.569 50.5547 189.42 51.264L189.042 53H187.838L188.286 51.124C188.379 50.7787 188.5 50.508 188.65 50.312C188.799 50.116 189.032 49.9667 189.35 49.864C188.93 49.78 188.612 49.5887 188.398 49.29C188.183 48.9913 188.076 48.632 188.076 48.212ZM189.224 48.184C189.224 48.5107 189.345 48.7627 189.588 48.94C189.84 49.1173 190.176 49.206 190.596 49.206H192.388V47.078H190.414C190.078 47.078 189.793 47.1807 189.56 47.386C189.336 47.582 189.224 47.848 189.224 48.184ZM199.53 46.056H200.678V51.95H201.714V54.89H200.58V53H195.162V46.056H196.338V51.95H199.53V46.056ZM205.24 45.986C207.107 45.986 208.04 46.7327 208.04 48.226V53H206.878V52.398L206.864 52.384C206.724 52.5893 206.482 52.7573 206.136 52.888C205.791 53.0187 205.394 53.084 204.946 53.084C204.181 53.084 203.579 52.8973 203.14 52.524C202.702 52.1413 202.482 51.642 202.482 51.026C202.482 50.4287 202.678 49.9387 203.07 49.556C203.462 49.1733 204.004 48.982 204.694 48.982H206.878V48.198C206.878 47.442 206.346 47.064 205.282 47.064C204.517 47.064 203.966 47.2647 203.63 47.666L202.902 46.896C203.425 46.2893 204.204 45.986 205.24 45.986ZM203.574 50.956C203.574 51.292 203.7 51.558 203.952 51.754C204.214 51.9407 204.592 52.034 205.086 52.034C206.281 52.034 206.878 51.6047 206.878 50.746V49.934H204.974C204.526 49.934 204.181 50.0227 203.938 50.2C203.696 50.3773 203.574 50.6293 203.574 50.956Z" fill="#939292"/>
<path d="M408.7 50.06C408.7 51.0493 408.42 51.8007 407.86 52.314C407.319 52.8273 406.651 53.084 405.858 53.084C405.018 53.084 404.355 52.832 403.87 52.328C403.385 51.8147 403.142 51.096 403.142 50.172C403.142 49.472 403.315 48.7813 403.66 48.1L406.18 43.256H407.454L405.284 47.498L405.326 47.512C405.578 47.4 405.877 47.344 406.222 47.344C406.941 47.344 407.533 47.61 408 48.142C408.467 48.6647 408.7 49.304 408.7 50.06ZM405.886 48.338C405.447 48.338 405.069 48.506 404.752 48.842C404.444 49.1687 404.29 49.6027 404.29 50.144C404.29 50.7227 404.435 51.18 404.724 51.516C405.013 51.852 405.401 52.02 405.886 52.02C406.362 52.02 406.745 51.8473 407.034 51.502C407.333 51.1567 407.482 50.704 407.482 50.144C407.482 49.5933 407.333 49.1547 407.034 48.828C406.735 48.5013 406.353 48.338 405.886 48.338ZM420.231 46.056V53H419.069V48.534C418.929 48.842 418.779 49.1407 418.621 49.43L417.277 52.006H416.325L414.939 49.36L414.519 48.52V53H413.357V46.056H414.477L416.115 49.346C416.152 49.402 416.273 49.6493 416.479 50.088L416.829 50.83C416.894 50.7087 417.011 50.466 417.179 50.102L417.515 49.346L419.139 46.056H420.231ZM427.278 49.024V49.92H422.812V50.032C422.812 50.6293 422.971 51.11 423.288 51.474C423.605 51.838 424.044 52.02 424.604 52.02C425.155 52.02 425.677 51.8007 426.172 51.362L426.914 52.188C426.289 52.7853 425.5 53.084 424.548 53.084C423.764 53.084 423.097 52.86 422.546 52.412C421.921 51.8613 421.608 50.9093 421.608 49.556C421.608 48.24 421.925 47.2973 422.56 46.728C423.148 46.224 423.797 45.972 424.506 45.972C425.299 45.972 425.957 46.2473 426.48 46.798C427.012 47.3487 427.278 48.0907 427.278 49.024ZM422.812 48.954H426.074C426.046 48.3473 425.887 47.8807 425.598 47.554C425.318 47.2273 424.935 47.064 424.45 47.064C423.974 47.064 423.591 47.232 423.302 47.568C423.013 47.8947 422.849 48.3567 422.812 48.954ZM432.968 51.264L433.724 52.09C433.426 52.398 433.052 52.6407 432.604 52.818C432.166 52.9953 431.722 53.084 431.274 53.084C430.378 53.084 429.641 52.7993 429.062 52.23C428.484 51.6513 428.194 50.7647 428.194 49.57C428.194 48.3847 428.498 47.4887 429.104 46.882C429.702 46.2847 430.448 45.986 431.344 45.986C432.194 45.986 432.95 46.308 433.612 46.952L432.87 47.792C432.45 47.3253 431.96 47.092 431.4 47.092C430.728 47.092 430.215 47.302 429.86 47.722C429.515 48.1327 429.342 48.7393 429.342 49.542C429.342 51.1753 430.005 51.992 431.33 51.992C431.956 51.992 432.502 51.7493 432.968 51.264ZM434.476 48.212C434.476 47.596 434.676 47.0873 435.078 46.686C435.488 46.2753 436.006 46.07 436.632 46.07H439.936V53H438.788V50.13H437.276C436.454 50.1767 435.969 50.5547 435.82 51.264L435.442 53H434.238L434.686 51.124C434.779 50.7787 434.9 50.508 435.05 50.312C435.199 50.116 435.432 49.9667 435.75 49.864C435.33 49.78 435.012 49.5887 434.798 49.29C434.583 48.9913 434.476 48.632 434.476 48.212ZM435.624 48.184C435.624 48.5107 435.745 48.7627 435.988 48.94C436.24 49.1173 436.576 49.206 436.996 49.206H438.788V47.078H436.814C436.478 47.078 436.193 47.1807 435.96 47.386C435.736 47.582 435.624 47.848 435.624 48.184ZM445.93 46.056H447.078V51.95H448.114V54.89H446.98V53H441.562V46.056H442.738V51.95H445.93V46.056ZM454.608 49.024V49.92H450.142V50.032C450.142 50.6293 450.301 51.11 450.618 51.474C450.935 51.838 451.374 52.02 451.934 52.02C452.485 52.02 453.007 51.8007 453.502 51.362L454.244 52.188C453.619 52.7853 452.83 53.084 451.878 53.084C451.094 53.084 450.427 52.86 449.876 52.412C449.251 51.8613 448.938 50.9093 448.938 49.556C448.938 48.24 449.255 47.2973 449.89 46.728C450.478 46.224 451.127 45.972 451.836 45.972C452.629 45.972 453.287 46.2473 453.81 46.798C454.342 47.3487 454.608 48.0907 454.608 49.024ZM450.142 48.954H453.404C453.376 48.3473 453.217 47.8807 452.928 47.554C452.648 47.2273 452.265 47.064 451.78 47.064C451.304 47.064 450.921 47.232 450.632 47.568C450.343 47.8947 450.179 48.3567 450.142 48.954ZM461.46 50.956C461.46 51.544 461.246 52.034 460.816 52.426C460.378 52.8087 459.855 53 459.248 53H455.944V46.056H458.94C459.678 46.056 460.252 46.2333 460.662 46.588C461.082 46.9427 461.292 47.4047 461.292 47.974C461.292 48.6367 460.97 49.1127 460.326 49.402C461.082 49.654 461.46 50.172 461.46 50.956ZM458.982 49.906H457.106V51.936H458.982C459.393 51.936 459.715 51.8427 459.948 51.656C460.191 51.4693 460.312 51.2313 460.312 50.942C460.312 50.6433 460.191 50.396 459.948 50.2C459.715 50.004 459.393 49.906 458.982 49.906ZM458.814 47.064H457.106V48.996H458.814C459.692 48.996 460.13 48.6693 460.13 48.016C460.13 47.7267 460.014 47.498 459.78 47.33C459.556 47.1527 459.234 47.064 458.814 47.064Z" fill="#939292"/>
<path d="M658.824 43.256H659.986V53H658.838V44.46L657.564 45.384L657.578 44.166L658.824 43.256ZM668.96 51.866V53H663.5V51.852L667.28 47.078C667.644 46.6207 667.826 46.1587 667.826 45.692C667.826 45.2813 667.695 44.9453 667.434 44.684C667.172 44.4227 666.808 44.292 666.342 44.292C665.931 44.292 665.581 44.432 665.292 44.712C665.002 44.992 664.825 45.356 664.76 45.804L663.584 45.636C663.696 44.88 664.008 44.2873 664.522 43.858C665.044 43.4193 665.66 43.2 666.37 43.2C667.172 43.2 667.821 43.4193 668.316 43.858C668.81 44.2967 669.058 44.8987 669.058 45.664C669.058 46.3453 668.82 46.98 668.344 47.568L664.942 51.866H668.96ZM680.631 46.056V53H679.469V48.534C679.329 48.842 679.179 49.1407 679.021 49.43L677.677 52.006H676.725L675.339 49.36L674.919 48.52V53H673.757V46.056H674.877L676.515 49.346C676.552 49.402 676.673 49.6493 676.879 50.088L677.229 50.83C677.294 50.7087 677.411 50.466 677.579 50.102L677.915 49.346L679.539 46.056H680.631ZM687.678 49.024V49.92H683.212V50.032C683.212 50.6293 683.371 51.11 683.688 51.474C684.005 51.838 684.444 52.02 685.004 52.02C685.555 52.02 686.077 51.8007 686.572 51.362L687.314 52.188C686.689 52.7853 685.9 53.084 684.948 53.084C684.164 53.084 683.497 52.86 682.946 52.412C682.321 51.8613 682.008 50.9093 682.008 49.556C682.008 48.24 682.325 47.2973 682.96 46.728C683.548 46.224 684.197 45.972 684.906 45.972C685.699 45.972 686.357 46.2473 686.88 46.798C687.412 47.3487 687.678 48.0907 687.678 49.024ZM683.212 48.954H686.474C686.446 48.3473 686.287 47.8807 685.998 47.554C685.718 47.2273 685.335 47.064 684.85 47.064C684.374 47.064 683.991 47.232 683.702 47.568C683.413 47.8947 683.249 48.3567 683.212 48.954ZM693.368 51.264L694.124 52.09C693.825 52.398 693.452 52.6407 693.004 52.818C692.565 52.9953 692.122 53.084 691.674 53.084C690.778 53.084 690.041 52.7993 689.462 52.23C688.883 51.6513 688.594 50.7647 688.594 49.57C688.594 48.3847 688.897 47.4887 689.504 46.882C690.101 46.2847 690.848 45.986 691.744 45.986C692.593 45.986 693.349 46.308 694.012 46.952L693.27 47.792C692.85 47.3253 692.36 47.092 691.8 47.092C691.128 47.092 690.615 47.302 690.26 47.722C689.915 48.1327 689.742 48.7393 689.742 49.542C689.742 51.1753 690.405 51.992 691.73 51.992C692.355 51.992 692.901 51.7493 693.368 51.264ZM694.875 48.212C694.875 47.596 695.076 47.0873 695.477 46.686C695.888 46.2753 696.406 46.07 697.031 46.07H700.335V53H699.187V50.13H697.675C696.854 50.1767 696.369 50.5547 696.219 51.264L695.841 53H694.637L695.085 51.124C695.179 50.7787 695.3 50.508 695.449 50.312C695.599 50.116 695.832 49.9667 696.149 49.864C695.729 49.78 695.412 49.5887 695.197 49.29C694.983 48.9913 694.875 48.632 694.875 48.212ZM696.023 48.184C696.023 48.5107 696.145 48.7627 696.387 48.94C696.639 49.1173 696.975 49.206 697.395 49.206H699.187V47.078H697.213C696.877 47.078 696.593 47.1807 696.359 47.386C696.135 47.582 696.023 47.848 696.023 48.184ZM706.33 46.056H707.478V51.95H708.514V54.89H707.38V53H701.962V46.056H703.138V51.95H706.33V46.056ZM715.008 49.024V49.92H710.542V50.032C710.542 50.6293 710.701 51.11 711.018 51.474C711.335 51.838 711.774 52.02 712.334 52.02C712.885 52.02 713.407 51.8007 713.902 51.362L714.644 52.188C714.019 52.7853 713.23 53.084 712.278 53.084C711.494 53.084 710.827 52.86 710.276 52.412C709.651 51.8613 709.338 50.9093 709.338 49.556C709.338 48.24 709.655 47.2973 710.29 46.728C710.878 46.224 711.527 45.972 712.236 45.972C713.029 45.972 713.687 46.2473 714.21 46.798C714.742 47.3487 715.008 48.0907 715.008 49.024ZM710.542 48.954H713.804C713.776 48.3473 713.617 47.8807 713.328 47.554C713.048 47.2273 712.665 47.064 712.18 47.064C711.704 47.064 711.321 47.232 711.032 47.568C710.743 47.8947 710.579 48.3567 710.542 48.954ZM721.86 50.956C721.86 51.544 721.646 52.034 721.216 52.426C720.778 52.8087 720.255 53 719.648 53H716.344V46.056H719.34C720.078 46.056 720.652 46.2333 721.062 46.588C721.482 46.9427 721.692 47.4047 721.692 47.974C721.692 48.6367 721.37 49.1127 720.726 49.402C721.482 49.654 721.86 50.172 721.86 50.956ZM719.382 49.906H717.506V51.936H719.382C719.793 51.936 720.115 51.8427 720.348 51.656C720.591 51.4693 720.712 51.2313 720.712 50.942C720.712 50.6433 720.591 50.396 720.348 50.2C720.115 50.004 719.793 49.906 719.382 49.906ZM719.214 47.064H717.506V48.996H719.214C720.092 48.996 720.53 48.6693 720.53 48.016C720.53 47.7267 720.414 47.498 720.18 47.33C719.956 47.1527 719.634 47.064 719.214 47.064Z" fill="#939292"/>
<path d="M919.224 43.256H920.386V53H919.238V44.46L917.964 45.384L917.978 44.166L919.224 43.256ZM932.169 46.056V47.064H928.305V53H927.143V46.056H932.169ZM935.632 46C936.668 46 937.434 46.3873 937.928 47.162C938.246 47.6473 938.404 48.3567 938.404 49.29C938.404 50.4847 938.26 51.3247 937.97 51.81C937.737 52.2113 937.401 52.524 936.962 52.748C936.524 52.972 936.029 53.084 935.478 53.084C934.424 53.084 933.658 52.734 933.182 52.034C932.837 51.5207 932.664 50.6947 932.664 49.556C932.664 48.6973 932.781 48.0347 933.014 47.568C933.248 47.0733 933.593 46.6907 934.05 46.42C934.508 46.14 935.035 46 935.632 46ZM934.064 48.016C933.906 48.3333 933.822 48.8513 933.812 49.57C933.812 50.27 933.882 50.774 934.022 51.082C934.302 51.7167 934.792 52.034 935.492 52.034C936.332 52.034 936.878 51.6233 937.13 50.802C937.205 50.5313 937.242 50.0413 937.242 49.332C937.242 48.7533 937.182 48.324 937.06 48.044C936.79 47.372 936.3 47.036 935.59 47.036C934.862 47.036 934.354 47.3627 934.064 48.016ZM944.384 51.978V47.064H941.682L941.598 48.968C941.551 49.9013 941.5 50.5453 941.444 50.9C941.369 51.3387 941.239 51.698 941.052 51.978H944.384ZM938.938 54.89V51.978H939.624C939.969 51.7447 940.193 51.432 940.296 51.04C940.417 50.6293 940.497 49.9527 940.534 49.01L940.674 46.056H945.56V51.978H946.4V54.89H945.266V53H940.072V54.89H938.938Z" fill="#939292"/>
<path d="M1143.62 43.256H1144.79V53H1143.64V44.46L1142.36 45.384L1142.38 44.166L1143.62 43.256ZM1149.99 51.446V52.972L1149.21 54.582H1148.5L1148.94 53H1148.55V51.446H1149.99ZM1157.37 49.304V49.92C1157.37 50.844 1157.12 51.6 1156.62 52.188C1156.13 52.776 1155.43 53.07 1154.5 53.07C1152.96 53.07 1152.05 52.37 1151.77 50.97L1152.92 50.774C1153.07 51.6233 1153.6 52.048 1154.5 52.048C1155.65 52.048 1156.22 51.2453 1156.22 49.64C1156.22 48.9493 1156.1 48.422 1155.86 48.058C1155.62 47.694 1155.2 47.512 1154.61 47.512C1154.05 47.512 1153.59 47.8013 1153.23 48.38H1152.09V43.256H1157.18V44.348H1153.17V47.064C1153.66 46.6347 1154.24 46.42 1154.92 46.42C1155.69 46.42 1156.28 46.6813 1156.71 47.204C1157.15 47.7173 1157.37 48.4173 1157.37 49.304ZM1167.1 46.056V47.064H1163.23V53H1162.07V46.056H1167.1ZM1170.56 46C1171.6 46 1172.36 46.3873 1172.86 47.162C1173.17 47.6473 1173.33 48.3567 1173.33 49.29C1173.33 50.4847 1173.19 51.3247 1172.9 51.81C1172.66 52.2113 1172.33 52.524 1171.89 52.748C1171.45 52.972 1170.96 53.084 1170.41 53.084C1169.35 53.084 1168.59 52.734 1168.11 52.034C1167.76 51.5207 1167.59 50.6947 1167.59 49.556C1167.59 48.6973 1167.71 48.0347 1167.94 47.568C1168.17 47.0733 1168.52 46.6907 1168.98 46.42C1169.43 46.14 1169.96 46 1170.56 46ZM1168.99 48.016C1168.83 48.3333 1168.75 48.8513 1168.74 49.57C1168.74 50.27 1168.81 50.774 1168.95 51.082C1169.23 51.7167 1169.72 52.034 1170.42 52.034C1171.26 52.034 1171.81 51.6233 1172.06 50.802C1172.13 50.5313 1172.17 50.0413 1172.17 49.332C1172.17 48.7533 1172.11 48.324 1171.99 48.044C1171.72 47.372 1171.23 47.036 1170.52 47.036C1169.79 47.036 1169.28 47.3627 1168.99 48.016ZM1179.31 51.978V47.064H1176.61L1176.53 48.968C1176.48 49.9013 1176.43 50.5453 1176.37 50.9C1176.3 51.3387 1176.17 51.698 1175.98 51.978H1179.31ZM1173.87 54.89V51.978H1174.55C1174.9 51.7447 1175.12 51.432 1175.22 51.04C1175.34 50.6293 1175.42 49.9527 1175.46 49.01L1175.6 46.056H1180.49V51.978H1181.33V54.89H1180.19V53H1175V54.89H1173.87ZM1184.73 45.986C1186.59 45.986 1187.53 46.7327 1187.53 48.226V53H1186.37V52.398L1186.35 52.384C1186.21 52.5893 1185.97 52.7573 1185.62 52.888C1185.28 53.0187 1184.88 53.084 1184.43 53.084C1183.67 53.084 1183.07 52.8973 1182.63 52.524C1182.19 52.1413 1181.97 51.642 1181.97 51.026C1181.97 50.4287 1182.17 49.9387 1182.56 49.556C1182.95 49.1733 1183.49 48.982 1184.18 48.982H1186.37V48.198C1186.37 47.442 1185.83 47.064 1184.77 47.064C1184 47.064 1183.45 47.2647 1183.12 47.666L1182.39 46.896C1182.91 46.2893 1183.69 45.986 1184.73 45.986ZM1183.06 50.956C1183.06 51.292 1183.19 51.558 1183.44 51.754C1183.7 51.9407 1184.08 52.034 1184.57 52.034C1185.77 52.034 1186.37 51.6047 1186.37 50.746V49.934H1184.46C1184.01 49.934 1183.67 50.0227 1183.43 50.2C1183.18 50.3773 1183.06 50.6293 1183.06 50.956Z" fill="#939292"/>
<path d="M1388.16 51.866V53H1382.7V51.852L1386.48 47.078C1386.84 46.6207 1387.03 46.1587 1387.03 45.692C1387.03 45.2813 1386.9 44.9453 1386.63 44.684C1386.37 44.4227 1386.01 44.292 1385.54 44.292C1385.13 44.292 1384.78 44.432 1384.49 44.712C1384.2 44.992 1384.03 45.356 1383.96 45.804L1382.78 45.636C1382.9 44.88 1383.21 44.2873 1383.72 43.858C1384.24 43.4193 1384.86 43.2 1385.57 43.2C1386.37 43.2 1387.02 43.4193 1387.52 43.858C1388.01 44.2967 1388.26 44.8987 1388.26 45.664C1388.26 46.3453 1388.02 46.98 1387.54 47.568L1384.14 51.866H1388.16ZM1397.97 46.056V47.064H1394.1V53H1392.94V46.056H1397.97ZM1401.43 46C1402.47 46 1403.23 46.3873 1403.73 47.162C1404.05 47.6473 1404.2 48.3567 1404.2 49.29C1404.2 50.4847 1404.06 51.3247 1403.77 51.81C1403.54 52.2113 1403.2 52.524 1402.76 52.748C1402.32 52.972 1401.83 53.084 1401.28 53.084C1400.22 53.084 1399.46 52.734 1398.98 52.034C1398.64 51.5207 1398.46 50.6947 1398.46 49.556C1398.46 48.6973 1398.58 48.0347 1398.81 47.568C1399.05 47.0733 1399.39 46.6907 1399.85 46.42C1400.31 46.14 1400.83 46 1401.43 46ZM1399.86 48.016C1399.71 48.3333 1399.62 48.8513 1399.61 49.57C1399.61 50.27 1399.68 50.774 1399.82 51.082C1400.1 51.7167 1400.59 52.034 1401.29 52.034C1402.13 52.034 1402.68 51.6233 1402.93 50.802C1403 50.5313 1403.04 50.0413 1403.04 49.332C1403.04 48.7533 1402.98 48.324 1402.86 48.044C1402.59 47.372 1402.1 47.036 1401.39 47.036C1400.66 47.036 1400.15 47.3627 1399.86 48.016ZM1410.18 51.978V47.064H1407.48L1407.4 48.968C1407.35 49.9013 1407.3 50.5453 1407.24 50.9C1407.17 51.3387 1407.04 51.698 1406.85 51.978H1410.18ZM1404.74 54.89V51.978H1405.42C1405.77 51.7447 1405.99 51.432 1406.1 51.04C1406.22 50.6293 1406.3 49.9527 1406.33 49.01L1406.47 46.056H1411.36V51.978H1412.2V54.89H1411.07V53H1405.87V54.89H1404.74ZM1415.6 45.986C1417.47 45.986 1418.4 46.7327 1418.4 48.226V53H1417.24V52.398L1417.22 52.384C1417.08 52.5893 1416.84 52.7573 1416.5 52.888C1416.15 53.0187 1415.75 53.084 1415.31 53.084C1414.54 53.084 1413.94 52.8973 1413.5 52.524C1413.06 52.1413 1412.84 51.642 1412.84 51.026C1412.84 50.4287 1413.04 49.9387 1413.43 49.556C1413.82 49.1733 1414.36 48.982 1415.05 48.982H1417.24V48.198C1417.24 47.442 1416.71 47.064 1415.64 47.064C1414.88 47.064 1414.33 47.2647 1413.99 47.666L1413.26 46.896C1413.78 46.2893 1414.56 45.986 1415.6 45.986ZM1413.93 50.956C1413.93 51.292 1414.06 51.558 1414.31 51.754C1414.57 51.9407 1414.95 52.034 1415.45 52.034C1416.64 52.034 1417.24 51.6047 1417.24 50.746V49.934H1415.33C1414.89 49.934 1414.54 50.0227 1414.3 50.2C1414.05 50.3773 1413.93 50.6293 1413.93 50.956Z" fill="#939292"/>
</svg>
