<svg width="42" height="43" viewBox="0 0 42 43" fill="none" xmlns="http://www.w3.org/2000/svg">
<path d="M21.0004 14.5L31.5004 9.25L21.0004 4V21.5M14.0004 21.4825L4.37544 26.9775C4.10612 27.1301 3.88211 27.3515 3.72625 27.6189C3.5704 27.8864 3.48828 28.1904 3.48828 28.5C3.48828 28.8096 3.5704 29.1136 3.72625 29.3811C3.88211 29.6485 4.10612 29.8699 4.37544 30.0225L19.2504 38.5275C19.7825 38.8347 20.3861 38.9964 21.0004 38.9964C21.6148 38.9964 22.2184 38.8347 22.7504 38.5275L37.6254 30.0225C37.8948 29.8699 38.1188 29.6485 38.2746 29.3811C38.4305 29.1136 38.5126 28.8096 38.5126 28.5C38.5126 28.1904 38.4305 27.8864 38.2746 27.6189C38.1188 27.3515 37.8948 27.1301 37.6254 26.9775L28.0004 21.5M11.3579 22.9875L30.6429 34.0125M30.6429 22.9875L11.3754 34.0125" stroke="#5C1EA5" stroke-linecap="round" stroke-linejoin="round"/>
</svg>
