<svg width="78" height="78" viewBox="0 0 78 78" fill="none" xmlns="http://www.w3.org/2000/svg">
<g clip-path="url(#clip0_4385_18802)">
<path d="M27.5918 19.5C32.0703 19.5 35.7168 23.1465 35.7168 27.625C35.7168 32.1035 32.0703 35.75 27.5918 35.75C23.1133 35.75 19.4668 32.1035 19.4668 27.625C19.4668 23.1465 23.1133 19.5 27.5918 19.5ZM27.5918 32.5C30.2796 32.5 32.4668 30.3128 32.4668 27.625C32.4668 24.9373 30.2796 22.75 27.5918 22.75C24.9041 22.75 22.7168 24.9373 22.7168 27.625C22.7168 30.3128 24.9041 32.5 27.5918 32.5ZM-0.0332031 8.268C-0.0332031 3.70825 3.6783 0 8.28355 0C25.0536 0.47775 38.4923 7.37425 50.1728 21.5963C55.4378 21.658 60.6931 22.9353 65.4023 25.298C70.9988 28.1093 75.4448 32.3473 77.3006 36.634C78.4673 39.3315 78.1586 42.575 76.4978 45.1003C74.9736 47.4175 72.5978 48.7468 69.9783 48.7468H61.7201C57.4106 48.7468 54.1313 49.842 51.9733 52C49.7536 54.2198 48.7201 57.213 48.7201 61.4218V69.68C48.7201 72.358 47.2868 74.8963 44.8851 76.4758C43.3478 77.4865 41.6123 78.0033 39.8963 78.0033C38.7686 78.0033 37.6538 77.7823 36.6073 77.3273C32.3206 75.4748 28.0793 71.0288 25.2713 65.429C22.9085 60.723 21.6313 55.4678 21.5695 50.1995C7.34755 38.5223 0.451046 25.077 -0.0267045 8.26475L-0.0332031 8.268ZM73.7776 43.3193C74.8436 41.6943 75.0483 39.6305 74.3138 37.9243C72.7538 34.3168 68.8766 30.68 63.9431 28.2035C60.4786 26.4648 56.6858 25.376 52.8248 24.9958C53.1661 25.454 53.5073 25.9188 53.8453 26.3933C59.0551 33.657 63.1436 42.5425 64.4468 45.5H69.9751C71.4831 45.5 72.8676 44.7038 73.7776 43.3193ZM28.167 63.973C30.6468 68.9098 34.2803 72.7838 37.8878 74.3438C39.4933 75.0425 41.4856 74.8118 43.0943 73.7588C44.5991 72.7675 45.4636 71.2823 45.4636 69.68V64.1778C42.4638 62.9363 33.6043 59.072 26.3568 53.872C25.8856 53.534 25.4208 53.1928 24.9593 52.8515C25.3396 56.7125 26.4283 60.5085 28.167 63.973ZM28.2516 51.2363C34.3388 55.601 41.8301 59.0753 45.4766 60.6515C45.6098 55.9748 46.9878 52.3868 49.6691 49.7023C52.3081 47.0633 56.0781 45.656 60.8816 45.5098C59.2046 41.8438 55.5613 34.3688 51.1998 28.2848C39.3145 11.7032 25.6483 3.74725 8.2348 3.25C5.4658 3.25 3.21679 5.50225 3.21679 8.2225C3.71404 25.6815 11.6701 39.3478 28.2548 51.2363H28.2516ZM72.3378 60.879C74.3008 62.8388 77.0861 69.6605 77.8661 73.073C78.1781 74.4315 77.7718 75.8323 76.7871 76.817C76.0201 77.584 75.0028 77.9968 73.9466 77.9968C73.6443 77.9968 73.3421 77.9643 73.0398 77.8928C69.6273 77.1128 62.8088 74.3275 60.8458 72.3645C59.3086 70.8305 58.4668 68.7895 58.4668 66.6185C58.4668 64.4475 59.3118 62.4065 60.8458 60.8725C63.9106 57.8045 69.2698 57.8045 72.3346 60.8725L72.3378 60.879ZM63.1468 70.07C64.4176 71.3408 70.3716 73.9505 73.7678 74.7273C74.1286 74.8085 74.3788 74.633 74.4893 74.5193C74.6031 74.4055 74.7818 74.1618 74.6973 73.7978C73.9206 70.4015 71.3108 64.4475 70.0401 63.1768C69.1203 62.257 67.8951 61.75 66.5918 61.75C65.2886 61.75 64.0666 62.257 63.1436 63.1768C62.2206 64.0965 61.7168 65.3218 61.7168 66.625C61.7168 67.9283 62.2238 69.1503 63.1436 70.0733L63.1468 70.07Z" fill="#03AE94"/>
</g>
<defs>
<clipPath id="clip0_4385_18802">
<rect width="78" height="78" fill="white"/>
</clipPath>
</defs>
</svg>
