<svg width="88" height="88" viewBox="0 0 88 88" fill="none" xmlns="http://www.w3.org/2000/svg">
<g clip-path="url(#clip0_4385_18762)">
<path d="M43.0357 88C42.1374 88 41.2244 87.802 40.3407 87.395C37.4587 86.064 36.058 83.0023 36.9307 79.9517L43.3657 58.6667H23.837C20.9074 58.6667 18.2234 57.3173 16.478 54.9633C14.7327 52.6093 14.2157 49.6503 15.0627 46.8453L26.1434 6.556C27.335 2.618 30.8624 0 34.9287 0H50.963C53.4857 0 55.8507 1.23933 57.288 3.311C58.7254 5.38267 59.0554 8.03367 58.1717 10.395L50.2517 33H64.1667C67.6207 33 70.6494 34.8223 72.2664 37.8767C73.8834 40.931 73.6927 44.4547 71.753 47.3147L48.2497 85.1253C47.0067 86.9917 45.067 88 43.0357 88ZM34.9324 3.66667C32.4904 3.66667 30.3747 5.236 29.667 7.57533L18.5864 47.8647C18.0657 49.5917 18.3737 51.3663 19.4224 52.778C20.471 54.1897 22.0807 55 23.8407 55H45.837C46.4164 55 46.9627 55.275 47.3074 55.7407C47.652 56.2063 47.7584 56.8077 47.5897 57.3613L40.4507 80.982C40.0034 82.5513 40.8944 83.6073 41.8844 84.062C42.8707 84.5167 44.253 84.5167 45.1697 83.1343L68.6804 45.3127C69.883 43.538 70.0004 41.4223 69.0287 39.589C68.057 37.7557 66.242 36.663 64.1667 36.663H47.6667C47.0727 36.663 46.5154 36.3733 46.1707 35.8893C45.826 35.4053 45.738 34.7857 45.936 34.221L54.725 9.141C55.209 7.84667 55.0404 6.49733 54.274 5.39733C53.5114 4.29367 52.3014 3.663 50.963 3.663H34.9287L34.9324 3.66667Z" fill="#03AE94"/>
</g>
<defs>
<clipPath id="clip0_4385_18762">
<rect width="88" height="88" fill="white"/>
</clipPath>
</defs>
</svg>
