<svg width="78" height="78" viewBox="0 0 78 78" fill="none" xmlns="http://www.w3.org/2000/svg">
<g clip-path="url(#clip0_4385_18734)">
<path d="M40.625 38.3273L51.5255 49.2278L49.2278 51.5255L37.3783 39.676V19.5032H40.6283V38.3305L40.625 38.3273ZM58.5 64.9838V78H55.25V67.1385C50.466 69.9108 44.915 71.5 39 71.5C33.085 71.5 27.534 69.9108 22.75 67.1385V78H19.5V64.9838C11.6122 59.0493 6.5 49.6113 6.5 39C6.5 28.3887 11.6122 18.9508 19.5 13.0163V0H22.75V10.8615C27.534 8.08925 33.085 6.5 39 6.5C44.915 6.5 50.466 8.08925 55.25 10.8615V0H58.5V13.0163C66.3878 18.9508 71.5 28.3887 71.5 39C71.5 49.6113 66.3878 59.0493 58.5 64.9838ZM68.25 39C68.25 22.8735 55.1265 9.75 39 9.75C22.8735 9.75 9.75 22.8735 9.75 39C9.75 55.1265 22.8735 68.25 39 68.25C55.1265 68.25 68.25 55.1297 68.25 39Z" fill="#03AE94"/>
</g>
<defs>
<clipPath id="clip0_4385_18734">
<rect width="78" height="78" fill="white"/>
</clipPath>
</defs>
</svg>
