<svg width="88" height="88" viewBox="0 0 88 88" fill="none" xmlns="http://www.w3.org/2000/svg">
<g clip-path="url(#clip0_4385_18744)">
<path d="M58.509 15.5832L44 1.07422L29.491 15.5832L42.1667 28.2589V34.9726C36.465 35.8562 32.0833 40.7989 32.0833 46.7462C32.0833 52.6936 36.465 57.6362 42.1667 58.5199V65.9962H33V87.9962H55V65.9962H45.8333V58.5199C51.535 57.6362 55.9167 52.6936 55.9167 46.7462C55.9167 40.7989 51.535 35.8562 45.8333 34.9726V28.2589L58.509 15.5832ZM51.3333 84.3332H36.6667V69.6666H51.3333V84.3332ZM44 6.25889L53.3243 15.5832L44 24.9076L34.6757 15.5832L44 6.25889ZM52.25 46.7499C52.25 51.2966 48.5503 54.9999 44 54.9999C39.4497 54.9999 35.75 51.2966 35.75 46.7499C35.75 42.2032 39.4497 38.4999 44 38.4999C48.5503 38.4999 52.25 42.1996 52.25 46.7499ZM28.1013 72.0499C29.887 73.8319 29.887 76.7359 28.1013 78.5216L18.4067 88.2162L15.8143 85.6239L24.4383 76.9999H9.16667C4.114 76.9999 0 72.8896 0 67.8332V49.4999C0 44.4472 4.114 40.3332 9.16667 40.3332H25.6667V43.9999H9.16667C6.13433 43.9999 3.66667 46.4676 3.66667 49.4999V67.8332C3.66667 70.8656 6.13433 73.3332 9.16667 73.3332H24.1963L15.8143 64.9512L18.4067 62.3589L28.1013 72.0499ZM88 20.1666V38.4999C88 43.5526 83.886 47.6666 78.8333 47.6666H63.5617L72.1857 56.2906L69.5933 58.8829L59.8987 49.1882C58.1167 47.4026 58.1167 44.5022 59.8987 42.7166L69.5933 33.0219L72.1857 35.6142L63.8037 43.9962H78.8333C81.8657 43.9962 84.3333 41.5286 84.3333 38.4962V20.1629C84.3333 17.1306 81.8657 14.6629 78.8333 14.6629H62.3333V10.9962H78.8333C83.886 10.9962 88 15.1139 88 20.1666Z" fill="#03AE94"/>
</g>
<defs>
<clipPath id="clip0_4385_18744">
<rect width="88" height="88" fill="white"/>
</clipPath>
</defs>
</svg>
