<svg width="88" height="88" viewBox="0 0 88 88" fill="none" xmlns="http://www.w3.org/2000/svg">
<g clip-path="url(#clip0_4385_18771)">
<path d="M42.8849 33.0403L43.9299 33.7663L44.9749 33.0403C45.6789 32.549 62.2632 20.9183 62.2632 10.7433C62.2632 4.818 57.7422 0 52.1799 0C48.6929 0 45.7229 1.595 43.9299 4.136C42.1369 1.595 39.1669 0 35.6799 0C30.1175 0 25.5965 4.818 25.5965 10.7433C25.5965 20.9147 42.1772 32.549 42.8849 33.0403ZM35.6799 3.66667C39.3979 3.66667 42.0965 6.36533 42.0965 10.0833H42.1662V11H45.8329V9.064C46.2765 5.88133 48.8102 3.66667 52.1799 3.66667C55.7182 3.66667 58.5965 6.842 58.5965 10.7433C58.5965 17.105 48.8285 25.6483 43.9299 29.2747C39.0312 25.652 29.2632 17.116 29.2632 10.7433C29.2632 6.842 32.1415 3.66667 35.6799 3.66667ZM87.9995 20.1667V68.6803C87.9995 70.9463 87.1599 73.1317 85.6345 74.8257L73.9122 88H68.9842L82.9139 72.369C83.8305 71.3533 84.3329 70.0407 84.3329 68.6803V20.1667C84.3329 17.1343 81.8652 14.6667 78.8329 14.6667C75.8005 14.6667 73.3329 17.1343 73.3329 20.1667V53.1667H73.3145C73.3145 55.2567 72.6069 57.3467 71.1879 59.037L59.8285 70.7923L57.1922 68.244L68.4635 56.5877C69.2665 55.627 69.6699 54.406 69.6625 53.1703V53.02C69.6222 51.7587 69.1602 50.4937 68.2619 49.4927C66.2452 47.245 62.7729 47.0507 60.5142 49.0673L46.4012 62.0547C47.2152 63.448 47.6589 65.043 47.6589 66.682V88H43.9922V66.682C43.9922 65.1493 43.3432 63.6717 42.2175 62.634L27.4555 49.049C25.2225 47.047 21.7465 47.2377 19.7262 49.489C17.9149 51.5093 17.8672 54.6003 19.6089 56.6757L30.7959 68.2367L28.1595 70.785L16.8882 59.1287C15.4252 57.3907 14.6992 55.2713 14.6882 53.163H14.6589V20.1667C14.6589 17.1343 12.1912 14.6667 9.15885 14.6667C6.12652 14.6667 3.65885 17.1343 3.65885 20.1667V68.6803C3.65885 70.0407 4.16119 71.3533 5.07785 72.369L19.0075 88H14.0795L2.35719 74.8257C0.831854 73.1317 -0.0078125 70.9463 -0.0078125 68.6803V20.1667C-0.0078125 15.114 4.10619 11 9.15885 11C14.2115 11 18.3255 15.114 18.3255 20.1667V45.826C21.7465 43.263 26.6195 43.3803 29.9195 46.3357L43.9922 59.2863L58.0465 46.3503C61.3612 43.3767 66.2379 43.263 69.6589 45.826V20.1667C69.6589 15.114 73.7729 11 78.8255 11C83.8782 11 87.9922 15.114 87.9922 20.1667H87.9995Z" fill="#03AE94"/>
</g>
<defs>
<clipPath id="clip0_4385_18771">
<rect width="88" height="88" fill="white"/>
</clipPath>
</defs>
</svg>
