<svg width="78" height="78" viewBox="0 0 78 78" fill="none" xmlns="http://www.w3.org/2000/svg">
<g clip-path="url(#clip0_4385_18811)">
<path d="M56.8334 -0.0128789C54.0384 0.0293711 48.7506 1.78437 48.7506 8.12512C48.7506 16.7246 43.8951 18.8794 40.6256 19.3636V12.7694C43.4206 12.0414 45.5006 9.51937 45.5006 6.50012C45.5006 2.91537 42.5854 0.000121093 39.0006 0.000121093C35.4159 0.000121093 32.5006 2.91537 32.5006 6.50012C32.5006 9.51937 34.5806 12.0414 37.3756 12.7694V19.3571C34.1419 18.8826 29.2506 16.7409 29.2506 8.11212C29.2506 1.43662 23.3974 -0.0258789 21.1386 -0.0258789L-0.00585938 0.000121093L0.0136406 4.86212C0.0136406 10.0849 3.13364 12.4704 6.32189 12.9871L6.49414 14.6121C6.49414 19.9356 10.1471 22.0156 12.9974 22.5714V24.3621C12.9974 30.7841 18.3144 32.4839 21.1256 32.4871H37.3756V39.0001H24.7234C20.5861 39.0001 16.9884 41.9121 16.3611 45.7731C15.4511 50.5864 19.4909 55.3606 24.3756 55.2501H37.3756V65.0001H29.2506C25.6659 65.0001 22.7506 67.9154 22.7506 71.5001C22.7506 75.0849 25.6659 78.0001 29.2506 78.0001H40.6256V68.2501H50.3756C54.8574 68.2501 58.5006 64.6069 58.5006 60.1251C58.5006 55.6434 54.8574 52.0001 50.3756 52.0001H40.6256V42.2501H53.3624C56.0924 42.2501 58.5624 40.9696 60.1256 39.0001H40.6256V32.5001H56.8789C59.6869 32.5001 65.0006 30.7971 65.0006 24.3784V22.5844C67.8541 22.0319 71.5071 19.9616 71.5039 14.7096L71.5949 12.9806C74.7669 12.7044 77.9454 10.2181 77.9876 4.88162L78.0071 0.0163711L56.8334 -0.0128789ZM37.3756 74.7501H29.2506C27.4566 74.7501 26.0006 73.2941 26.0006 71.5001C26.0006 69.7061 27.4566 68.2501 29.2506 68.2501H37.3756V74.7501ZM37.3756 52.0001H24.3756C21.4376 52.0619 19.0066 49.2019 19.5689 46.2931C19.9459 43.9889 22.1624 42.2501 24.7266 42.2501H37.3789V52.0001H37.3756ZM35.7506 6.50012C35.7506 4.70937 37.2066 3.25012 39.0006 3.25012C40.7946 3.25012 42.2506 4.70937 42.2506 6.50012C42.2506 8.29087 40.7946 9.75012 39.0006 9.75012C37.2066 9.75012 35.7506 8.29087 35.7506 6.50012ZM21.1354 29.2371C20.3196 29.2274 16.2506 28.9446 16.2506 24.3589L16.2441 22.7371H22.7506V19.4871H14.6289C13.8131 19.4774 9.74414 19.1946 9.74089 14.5276L9.65964 12.9871H19.5006V9.73712L6.59164 9.75987C5.34689 9.55187 3.26364 8.63537 3.26364 4.85562L3.25714 3.25012L21.1321 3.22737C21.9446 3.23712 26.0006 3.52312 26.0006 8.11212C26.0006 17.8914 31.6166 21.9279 37.3756 22.5941V29.2371H21.1354ZM50.3756 55.2501C53.0634 55.2501 55.2506 57.4374 55.2506 60.1251C55.2506 62.8129 53.0634 65.0001 50.3756 65.0001H40.6256V55.2501H50.3756ZM74.7376 4.87512C74.7376 8.64837 72.6511 9.56162 71.6794 9.75012H58.5006V13.0001H68.3416L68.2571 14.6251C68.2571 19.2076 64.1881 19.4904 63.3789 19.5001H55.2506V22.7501H61.7539V24.3751C61.7539 28.9576 57.6816 29.2404 56.8756 29.2501H40.6256V22.6104C46.3651 21.9571 52.0006 17.9239 52.0006 8.12512C52.0006 3.54262 56.0664 3.25012 56.8561 3.23712L74.7441 3.26312L74.7376 4.87512Z" fill="#03AE94"/>
</g>
<defs>
<clipPath id="clip0_4385_18811">
<rect width="78" height="78" fill="white"/>
</clipPath>
</defs>
</svg>
