<svg width="24" height="24" viewBox="0 0 24 24" fill="none" xmlns="http://www.w3.org/2000/svg">
<g clip-path="url(#clip0_199_1075)">
<path d="M5 10.5C5 10.224 5.224 10 5.5 10H10V5.5C10 5.224 10.224 5 10.5 5C10.776 5 11 5.224 11 5.5V10H15.5C15.776 10 16 10.224 16 10.5C16 10.776 15.776 11 15.5 11H11V15.5C11 15.776 10.776 16 10.5 16C10.224 16 10 15.776 10 15.5V11H5.5C5.224 11 5 10.776 5 10.5ZM24 8.5V19.5C24 21.981 21.981 24 19.5 24H8.5C6.572 24 4.889 22.77 4.264 20.976C1.894 20.851 0 18.901 0 16.5V4.5C0 2.019 2.019 0 4.5 0H16.5C18.901 0 20.851 1.894 20.976 4.264C22.769 4.889 24 6.571 24 8.5ZM4.5 20H16.5C18.43 20 20 18.43 20 16.5V4.5C20 2.57 18.43 1 16.5 1H4.5C2.57 1 1 2.57 1 4.5V16.5C1 18.43 2.57 20 4.5 20ZM23 8.5C23 7.129 22.202 5.912 21 5.342V16.5C21 18.981 18.981 21 16.5 21H5.342C5.912 22.202 7.129 23 8.5 23H19.5C21.43 23 23 21.43 23 19.5V8.5Z" fill="#03AE94"/>
</g>
<defs>
<clipPath id="clip0_199_1075">
<rect width="24" height="24" fill="white"/>
</clipPath>
</defs>
</svg>
