<svg width="33" height="33" viewBox="0 0 33 33" fill="none" xmlns="http://www.w3.org/2000/svg">
<path d="M3.83334 23.1667C2.90191 18.771 2.90191 14.229 3.83334 9.83333C3.95573 9.38695 4.19219 8.9801 4.51948 8.65281C4.84678 8.32552 5.25362 8.08905 5.70001 7.96667C12.8513 6.78194 20.1487 6.78194 27.3 7.96667C27.7464 8.08905 28.1532 8.32552 28.4805 8.65281C28.8078 8.9801 29.0443 9.38695 29.1667 9.83333C30.0981 14.229 30.0981 18.771 29.1667 23.1667C29.0443 23.6131 28.8078 24.0199 28.4805 24.3472C28.1532 24.6745 27.7464 24.9109 27.3 25.0333C20.1488 26.2183 12.8513 26.2183 5.70001 25.0333C5.25362 24.9109 4.84678 24.6745 4.51948 24.3472C4.19219 24.0199 3.95573 23.6131 3.83334 23.1667Z" stroke="white" stroke-linecap="round" stroke-linejoin="round"/>
<path d="M13.8333 20.5L20.5 16.5L13.8333 12.5V20.5Z" stroke="white" stroke-linecap="round" stroke-linejoin="round"/>
</svg>
